<?xml version="1.0" encoding="UTF-8"?><svg xmlns="http://www.w3.org/2000/svg" xmlns:xlink="http://www.w3.org/1999/xlink" height="248.8" preserveAspectRatio="xMidYMid meet" version="1.1" viewBox="113.3 77.2 205.1 248.8" width="205.1" zoomAndPan="magnify">
 <g id="surface1">
  <g id="change1_1"><path d="m145.78 132.84s-9.17 12.32-12.96 37.3c0 0 3.16 15.81 0 25.29s-12.11 20.89-17.02 28.13c-1.6 2.34-2.47 10.74 3.11 12.01 6.95 1.59 14.7 2.22 14.7 2.22s-0.47 6.64-3 9.48c0 0 0.74 5.06 4.16 7.27 0 0 8.17 1.27 8.48 2.53 0 0-3.11 1.9-5.37 3.79-2.27 1.9-2.87 5.34-2.56 7.56 0.32 2.21 2.12 4.37 4.06 6.48 3.06 3.32 3.14 4.07 2.82 15.57-0.26 9.17 2.61 16.12 7.59 16.35 0 0 16.14 4.63 43.17-1.78 0 0 2.37 13.04-1.18 20.94h91.91s-13.79-31.79-8.62-46.78c5.13-14.84 17.68-32.55 22.45-42.2 20.86-42.2 17.91-90.32-17.07-114.75-64.49-45.051-119.18-14.39-134.67 10.59" fill="#5faedf"/></g>
  <g id="change2_1"><path d="m275.07 279.2c5.13-14.84 17.68-32.55 22.45-42.2 16.17-32.7 18.02-68.95 1.76-94.98l-0.01-0.02c-40.09 120.39-123.27 138.73-156.95 141.07v0.03 0.66 0.12 0.61 0.19 0.61l-0.01 0.2v0.66l-0.01 0.21c0 0.23-0.01 0.47-0.01 0.71l-0.01 0.22c0 0.26-0.01 0.52-0.01 0.79l-0.01 0.21c-0.01 0.29-0.02 0.6-0.03 0.91v0.13c-0.01 0.37-0.02 0.74-0.03 1.14-0.26 9.17 2.61 16.12 7.59 16.35 0 0 16.14 4.63 43.17-1.78 0 0 2.37 13.04-1.18 20.94h91.91s-13.79-31.79-8.62-46.78" fill="#4b9cc7"/></g>
  <g id="change3_1"><path d="m255.09 190.84c-12.18 0.16-22.2-9.58-22.36-21.77-0.16-12.18 9.59-22.19 21.77-22.35 12.19-0.16 22.19 9.58 22.36 21.77 0.16 12.18-9.59 22.19-21.77 22.35zm-35.71 2.93l11.38 11.08 10.27-6.46c1.09 0.52 2.22 0.96 3.38 1.35l3.01 11.75 15.88-0.21 2.7-11.83c1.14-0.42 2.27-0.89 3.35-1.43l10.43 6.18 11.09-11.38-6.46-10.27c0.51-1.1 0.95-2.23 1.34-3.39l11.76-3-0.21-15.89-11.83-2.7c-0.42-1.14-0.9-2.26-1.44-3.34l6.18-10.44-11.37-11.08-10.28 6.45c-1.09-0.5-2.22-0.95-3.38-1.34l-3.01-11.75-15.88 0.21-2.7 11.83c-1.15 0.42-2.27 0.89-3.35 1.43l-10.43-6.18-11.08 11.39 6.45 10.26c-0.51 1.1-0.95 2.23-1.34 3.39l-11.76 3.01 0.22 15.88 11.83 2.69c0.41 1.15 0.89 2.27 1.43 3.36l-6.18 10.43" fill="#1d355e"/></g>
  <g id="change3_2"><path d="m217.98 247.71c-8.43 0.12-15.36-6.63-15.47-15.07-0.12-8.43 6.63-15.35 15.07-15.47 8.43-0.12 15.36 6.63 15.47 15.07 0.11 8.43-6.63 15.36-15.07 15.47zm-5.3 14.31l10.99-0.15 1.87-8.19c0.79-0.29 1.57-0.62 2.32-1l7.22 4.28 7.67-7.88-4.47-7.1c0.36-0.77 0.66-1.55 0.93-2.35l8.14-2.08-0.15-11-8.18-1.87c-0.29-0.79-0.63-1.57-1-2.32l4.28-7.22-7.88-7.67-7.11 4.47c-0.76-0.35-1.54-0.66-2.34-0.93l-2.08-8.14-11 0.15-1.87 8.19c-0.79 0.29-1.57 0.62-2.32 0.99l-7.22-4.27-7.67 7.87 4.46 7.11c-0.34 0.75-0.65 1.54-0.92 2.34l-8.14 2.09 0.15 11 8.19 1.86c0.29 0.79 0.61 1.57 0.99 2.32l-4.28 7.22 7.88 7.67 7.11-4.46c0.76 0.35 1.54 0.66 2.34 0.92l2.09 8.15" fill="#1d355e"/></g>
  <g id="change4_1"><path d="m224.13 179.98c0.41 1.15 0.89 2.27 1.43 3.36l-6.18 10.43 11.38 11.08 10.27-6.46c1.09 0.52 2.22 0.96 3.38 1.35l3.01 11.75 15.88-0.21 2.7-11.83c1.14-0.42 2.27-0.89 3.35-1.43l10.43 6.18 0.42-0.43c-5.97-4.72-11.11-9.86-15.54-15.25-2.89 1.44-6.13 2.28-9.57 2.32-12.18 0.16-22.2-9.58-22.36-21.77-0.1-8.27 4.36-15.54 11.06-19.41-1.17-3.59-2.13-7.08-2.93-10.4-0.21 0.1-0.42 0.18-0.62 0.28l-10.43-6.18-11.08 11.39 6.45 10.26c-0.51 1.1-0.95 2.23-1.34 3.39l-11.76 3.01 0.22 15.88 11.83 2.69" fill="#162944"/></g>
  <g id="change3_3"><path d="m182.2 185.88c-8.86 3.67-19.02-0.54-22.68-9.4-3.67-8.86 0.53-19.02 9.39-22.68 8.86-3.67 19.02 0.54 22.69 9.4 3.66 8.85-0.55 19.01-9.4 22.68zm-25.25 12.54l11.54 4.79 5.63-7.71c0.94 0.05 1.9 0.05 2.86-0.01l5.63 7.72 11.55-4.78-1.48-9.44c0.71-0.64 1.39-1.31 2.03-2.02l9.43 1.48 4.79-11.55-7.72-5.63c0.06-0.95 0.06-1.9 0-2.86l7.72-5.62-4.79-11.55-9.43 1.47c-0.64-0.71-1.32-1.4-2.02-2.03l1.48-9.43-11.55-4.78-5.63 7.71c-0.95-0.06-1.9-0.05-2.86 0l-5.63-7.71-11.55 4.78 1.48 9.43c-0.72 0.64-1.4 1.31-2.03 2.02l-9.43-1.47-4.79 11.54 7.71 5.63c-0.05 0.95-0.04 1.9 0.01 2.87l-7.72 5.62 4.79 11.55 9.43-1.48c0.64 0.72 1.31 1.4 2.02 2.03l-1.47 9.43" fill="#1d355e"/></g>
  <g id="change4_2"><path d="m156.4 186.96c0.64 0.72 1.31 1.4 2.02 2.03l-1.47 9.43 11.54 4.79 5.63-7.71c0.94 0.05 1.9 0.05 2.86-0.01l5.63 7.72 11.55-4.78-1.48-9.44c0.71-0.64 1.39-1.31 2.03-2.02l9.43 1.48 0.18-0.43c-5.74-1.72-11-3.98-15.8-6.63-1.69 1.9-3.82 3.45-6.32 4.49-8.86 3.67-19.02-0.54-22.68-9.4-2.5-6.02-1.35-12.64 2.42-17.41-1.9-2.29-3.62-4.56-5.17-6.75-0.13 0.13-0.25 0.25-0.37 0.38l-9.43-1.47-4.79 11.54 7.71 5.63c-0.05 0.95-0.04 1.9 0.01 2.87l-7.72 5.62 4.79 11.55 9.43-1.48" fill="#162944"/></g>
  <g id="change4_3"><path d="m196.35 225.25l-8.14 2.09 0.15 11 8.19 1.86c0.29 0.79 0.61 1.57 0.99 2.32l-4.28 7.22 7.88 7.67 7.11-4.46c0.76 0.35 1.54 0.66 2.34 0.92l2.09 8.15 10.99-0.15 1.87-8.19c0.79-0.29 1.57-0.62 2.32-1l7.22 4.28 2.36-2.42c-4.65-2.79-8.6-5.79-11.99-8.89-2.2 1.28-4.74 2.03-7.47 2.06-8.43 0.12-15.36-6.63-15.47-15.07-0.07-5.15 2.43-9.74 6.31-12.56-0.97-3.01-1.62-5.85-2.04-8.43l-6.3-3.72-7.67 7.87 4.46 7.11c-0.34 0.75-0.65 1.54-0.92 2.34" fill="#162944"/></g>
 </g>
</svg>