<?xml version="1.0" encoding="UTF-8"?><svg xmlns="http://www.w3.org/2000/svg" xmlns:xlink="http://www.w3.org/1999/xlink" height="382.7" preserveAspectRatio="xMidYMid meet" version="1.0" viewBox="80.3 21.2 264.6 382.7" width="264.6" zoomAndPan="magnify"><g><g id="change1_1"><path d="M 233.128906 201.378906 C 233.128906 217.292969 220.222656 230.199219 204.304688 230.199219 C 188.386719 230.199219 175.484375 217.292969 175.484375 201.378906 C 175.484375 185.464844 188.386719 172.5625 204.304688 172.5625 C 220.222656 172.5625 233.128906 185.464844 233.128906 201.378906" fill="#52afb9"/></g><g id="change1_2"><path d="M 260.402344 144.054688 C 260.402344 144.054688 262.882812 197.363281 239.546875 226.597656 C 221.085938 249.71875 206.34375 249.558594 206.34375 249.558594 C 206.34375 249.558594 184.632812 249.421875 163.394531 224.136719 C 132.441406 187.289062 141.773438 146.511719 141.773438 146.511719 C 141.773438 146.511719 115.183594 225.953125 172.074219 265.40625 C 241.027344 313.226562 207.609375 403.957031 207.609375 403.957031 C 256.742188 345 239.328125 278.425781 252.8125 257.058594 C 278.851562 215.789062 260.402344 144.054688 260.402344 144.054688" fill="#52afb9"/></g><g id="change2_1"><path d="M 301.558594 198.496094 C 291.375 211.355469 272.652344 213.496094 272.652344 213.496094 C 272.652344 213.496094 270.433594 194.777344 280.617188 181.914062 C 290.796875 169.058594 309.523438 166.921875 309.523438 166.921875 C 309.523438 166.921875 311.738281 185.636719 301.558594 198.496094" fill="#86bc39"/></g><g id="change2_2"><path d="M 329.023438 157.425781 C 315.851562 167.210938 297.214844 164.421875 297.214844 164.421875 C 297.214844 164.421875 299.925781 145.769531 313.09375 135.988281 C 326.257812 126.207031 344.898438 128.996094 344.898438 128.996094 C 344.898438 128.996094 342.183594 147.644531 329.023438 157.425781" fill="#86bc39"/></g><g id="change2_3"><path d="M 297.210938 153.703125 C 288.613281 167.675781 270.273438 172.011719 270.273438 172.011719 C 270.273438 172.011719 265.863281 153.683594 274.457031 139.710938 C 283.046875 125.742188 301.390625 121.40625 301.390625 121.40625 C 301.390625 121.40625 305.800781 139.730469 297.210938 153.703125" fill="#86bc39"/></g><g id="change2_4"><path d="M 126.726562 187.453125 C 118.132812 201.425781 99.792969 205.761719 99.792969 205.761719 C 99.792969 205.761719 95.378906 187.4375 103.972656 173.460938 C 112.5625 159.488281 130.90625 155.160156 130.90625 155.160156 C 130.90625 155.160156 135.320312 173.480469 126.726562 187.453125" fill="#86bc39"/></g><g id="change2_5"><path d="M 282.195312 120.511719 C 278.714844 136.539062 262.851562 146.707031 262.851562 146.707031 C 262.851562 146.707031 252.613281 130.882812 256.09375 114.851562 C 259.566406 98.820312 275.4375 88.65625 275.4375 88.65625 C 275.4375 88.65625 285.671875 104.480469 282.195312 120.511719" fill="#86bc39"/></g><g id="change2_6"><path d="M 281.902344 66.738281 C 277.0625 82.410156 260.382812 91.175781 260.382812 91.175781 C 260.382812 91.175781 251.542969 74.527344 256.382812 58.855469 C 261.21875 43.183594 277.902344 34.417969 277.902344 34.417969 C 277.902344 34.417969 286.738281 51.0625 281.902344 66.738281" fill="#86bc39"/></g><g id="change2_7"><path d="M 254.410156 84.375 C 259.664062 99.914062 251.273438 116.792969 251.273438 116.792969 C 251.273438 116.792969 234.367188 108.472656 229.105469 92.933594 C 223.851562 77.394531 232.242188 60.519531 232.242188 60.519531 C 232.242188 60.519531 249.15625 68.835938 254.410156 84.375" fill="#86bc39"/></g><g id="change2_8"><path d="M 218.066406 85.5625 C 228.765625 98 227.3125 116.792969 227.3125 116.792969 C 227.3125 116.792969 208.519531 115.414062 197.816406 102.980469 C 187.125 90.546875 188.574219 71.753906 188.574219 71.753906 C 188.574219 71.753906 207.371094 73.128906 218.066406 85.5625" fill="#86bc39"/></g><g id="change2_9"><path d="M 226.539062 47.117188 C 230.277344 63.09375 220.308594 79.085938 220.308594 79.085938 C 220.308594 79.085938 204.273438 69.179688 200.53125 53.210938 C 196.792969 37.238281 206.765625 21.246094 206.765625 21.246094 C 206.765625 21.246094 222.800781 31.148438 226.539062 47.117188" fill="#86bc39"/></g><g id="change2_10"><path d="M 169.394531 127.667969 C 170.105469 144.054688 157.335938 157.921875 157.335938 157.921875 C 157.335938 157.921875 143.417969 145.210938 142.710938 128.820312 C 142.003906 112.433594 154.773438 98.574219 154.773438 98.574219 C 154.773438 98.574219 168.6875 111.28125 169.394531 127.667969" fill="#86bc39"/></g><g id="change2_11"><path d="M 111.257812 128.425781 C 127.566406 130.183594 139.355469 144.890625 139.355469 144.890625 C 139.355469 144.890625 124.699219 156.742188 108.390625 154.980469 C 92.082031 153.21875 80.296875 138.507812 80.296875 138.507812 C 80.296875 138.507812 94.953125 126.660156 111.257812 128.425781" fill="#86bc39"/></g><g id="change2_12"><path d="M 185.121094 84.082031 C 185.824219 100.472656 173.058594 114.332031 173.058594 114.332031 C 173.058594 114.332031 159.144531 101.625 158.433594 85.234375 C 157.726562 68.851562 170.492188 54.988281 170.492188 54.988281 C 170.492188 54.988281 184.410156 67.695312 185.121094 84.082031" fill="#86bc39"/></g><g id="change2_13"><path d="M 155.46875 75.730469 C 154.761719 92.117188 140.851562 104.832031 140.851562 104.832031 C 140.851562 104.832031 128.078125 90.976562 128.777344 74.589844 C 129.476562 58.199219 143.390625 45.484375 143.390625 45.484375 C 143.390625 45.484375 156.167969 59.34375 155.46875 75.730469" fill="#86bc39"/></g><g id="change2_14"><path d="M 133.351562 99.769531 C 142.375 113.46875 138.550781 131.921875 138.550781 131.921875 C 138.550781 131.921875 120.078125 128.164062 111.046875 114.46875 C 102.023438 100.773438 105.855469 82.320312 105.855469 82.320312 C 105.855469 82.320312 124.320312 86.074219 133.351562 99.769531" fill="#86bc39"/></g></g></svg>