<?xml version="1.0" encoding="UTF-8"?><svg xmlns="http://www.w3.org/2000/svg" xmlns:xlink="http://www.w3.org/1999/xlink" height="501.0" preserveAspectRatio="xMidYMid meet" version="1.1" viewBox="-0.1 -1.0 540.1 501.0" width="540.1" zoomAndPan="magnify">
 <defs>
  <clipPath id="clip1">
   <path d="m25 171h515.02v205h-515.02z"/>
  </clipPath>
 </defs>
 <g id="surface1">
  <g id="change1_2"><path d="m517.21 373.2c-0.3 6.4-0.19 9.7 0.4 9.8 0.41 0.1 0.91-1.1 1.6-3.6 2.9 6.6 4.9 9.8 6.11 9.5 1.39-0.4 1.59-5.7 0.5-16.1-2.91 0.1-5.71 0.2-8.61 0.4zm-515.39 24c-0.5 1.7-0.99999 4.2-1.2031 7.4-0.19924 4.5 0.5 8.9 1.2031 8.9 0.5 0 0.5977-2.6 2.5977-5.8 0.8007-1.2 1.6015-2.1 2.1015-2.7 0.8008 1.5 1.3985 2.2 1.8008 2.1 0.6992-0.2 0.6992-3.3 0-9.4zm94.297-60c1.301-0.9 3-2.1 4.707-3.5 1.7-1.5 2.09-2 2-2.5-0.11-1.8-4.707-2.8-5.105-2.9 5.305-4.2 6.395-5.7 6.195-6.1-0.39-0.7-5.797 0.8-8.695 4.9-2.102 2.9-2.301 6.1-2.301 7.7 1 0.8 2.102 1.6 3.199 2.4zm-54.699-9.8c-2.5 1.4-4.801 1.9-6.301 2.1-1.199 0.5-2 1.5-2.199 2.7-0.199 1.5 0.699 3 2.199 3.6v9.8c0.102 0.2 1.301 1.8 3.5 1.9 2.301 0.1 3.703-1.8 3.801-1.9v-6.3c2.102-0.6 3.199-1.7 3.801-2.4 2-2.4 2-5.6 1.898-10.9 0-2-0.199-3.6-0.297-4.7-0.902 1.3-2.8 4.1-6.402 6.1zm302.2-262.8c-0.79-0.704-1.2-1.5-1.4-2 0-0.204-0.19-1.5-1.39-2.403-1.41-0.898-2.91-0.398-3-0.398-0.8 0.597-2.71 1.699-5.41 2-2.59 0.301-4.59-0.403-5.5-0.801 0.2 1.398 0.61 3.898 2.41 6.398 0.79 1.204 2.7 3.801 6.29 4.602 2.91 0.699 5.3-0.199 6.3-0.602 0.41 1.801 0.8 3.602 1.2 5.301 0.71 0 2.71-0.199 4.21-1.699 2-2.102 2.2-5.801 0.2-9-0.7 0.102-2.41-0.102-3.91-1.398zm158.21 368.8l-2.5-58.2-35.91-0.7-2.2 58.8 5.81 39.5h11l-1.41-43.1 5.3-34 6.8 40.1 9.2 31.8h11.5zm-72.8-342.7l14.89-28.199-5.7-2.898-19.19 26.898-27.91-3.898c-0.59-0.204-6.2-2.102-10 0.796-4.09 3.204-4.9 11.301 0.5 17.802 16.6-0.1 33.1-0.1 49.71-0.2h28.7l-1.2-8.398zm-393.2 328.3c-0.101 0.5-0.8 3.9-1.703 8.4zm14.399-11c1.398 12.7 2.801 25.4 4.199 38.1l-5.699 45.5h-9.5v-43.3c-1.699-6.9-3.5-13.8-5.199-20.7-2.102 11-5.403 28.7-5.403 28.7l-9.699 30.7h-10.598l7.598-36 0.602-44c4.3-1.1 10.5-2.3 18.097-1.9 6.403 0.3 11.703 1.6 15.602 2.9zm133.8-393.4c-2.91-1.602-5.2-3.403-6.81-4.9028-0.3 0.4998-4.69 7.3008-1.6 13.102 0.5 0.898 1.3 2.097 2.71 3.199-0.41 3.102-0.8 6.102-1.11 9.199 0.11 0.199 1.5 2.903 4.5 3.199 2.31 0.301 4.61-1 5.81-3.097-0.11-2.602-0.31-5.301-0.41-7.903 0.8-0.699 2.41-2.296 3.21-4.898 0.7-2.199 0.5-4.102 0.29-5-1.9-0.602-4.2-1.5-6.59-2.898zm156.59 61.097c1.91 4.903 3.8 9.801 5.71 14.699-2.21 0.704-4.5 1.403-6.71 2-9 0.403-16.4 0.903-21.5 1.301-8.7 0.699-16.59 1.5-16.7 0.801 0-0.301 1-0.699 1.91-0.898-4.61-0.204-6.91-0.5-6.91-0.903-0.09-1 11.5-2.801 34.7-5.199 1.1-0.602 2.41-1.398 3.6-2.5 3.61-3.398 5.2-7.102 5.9-9.301" fill="#fff"/></g>
  <g id="change2_1"><path d="m393.52 65.699c-4.91-4.898-11.7 1-19.91-3.5-7.09-3.898-6.79-11-13.29-12.097-3.71-0.602-4.11 1.597-9.5 2-8.71 0.699-12.11-4.801-17.8-3.704-2.91 0.602-6.91 3-10.7 12l5.39 4c-0.5-1.296-0.69-2.5-0.8-3.296 0.91 0.398 2.91 1.097 5.5 0.796 2.7-0.296 4.61-1.398 5.41-2 0.09-0.097 1.59-0.597 3 0.403 1.2 0.801 1.39 2.199 1.39 2.398 0.2 0.5 0.61 1.301 1.4 2 1.5 1.403 3.21 1.5 3.8 1.5 1.3 2 1.7 4.301 1.3 6.199l0.9 0.301c1.41-1.898 3.3-2.199 3.3-2.199 1.91-0.102 4.41 0.102 5.91 1.801 0.89 0.898 1.2 2 1.09 4.301l20.2 7.699c6.6 1.5 12.91-1.403 15.21-6.403 1.89-3.898 1.2-9.199-1.8-12.199zm-62.5 21.602zm-33.11 5.097c0.91 0.102 2.5 0.301 5.41 0.403 0.29 0 0.59 0.301 0.59 0.597 0 0.301-0.09 0.5-0.3 0.704 2.21-0.102 5.91-0.403 9.6-0.704 1.61-0.097 3.2-0.296 4.81-0.398 7-0.5 14.19-1 21.5-1.301l6-1.801-4.81-12.398c-1.3 3-3.19 5.699-5.6 7.801-1.09 1-2.4 1.898-3.79 2.597-0.11 0-0.21 0.102-0.21 0.102-22.7 2.398-30.7 3.699-33.2 4.398zm5.11 3c-1.91 0-2.31-0.296-2.41-0.796 0-0.204 0-0.403 0.1-0.5-4.69-0.301-5.1-0.801-5.1-1.403-0.09-1-0.09-2.199 35.21-5.898 1.2-0.699 2.39-1.5 3.39-2.403 2.61-2.296 4.61-5.398 5.81-8.898 0.09-0.301 0.3-0.398 0.59-0.398 0.3 0 0.5 0.199 0.6 0.398l5.7 14.699c0.11 0.199 0.11 0.403 0 0.5-0.09 0.199-0.2 0.301-0.39 0.301l-6.7 2h-0.21c-7.29 0.301-14.5 0.699-21.5 1.301-1.7 0.097-3.29 0.301-4.79 0.398-5.41 0.403-8.5 0.699-10.3 0.699" fill="#0f0e0c"/></g>
  <g id="change1_3"><path d="m216.41 362.3h262.2c12.8 0 23.41-10.5 23.41-23.4v-220.3c0-12.8-10.5-23.401-23.41-23.401h-394c-12.794 0-23.395 10.501-23.395 23.401v220.4c0 12.8 10.5 23.4 23.398 23.4h107.41m24.39-0.1h-13.89" fill="#fff"/></g>
  <g id="change3_1"><path d="m177.11 35.199c-3.7 0.403-11 1.801-18.2 7-10.7 7.699-14 18.5-14.89 21.801v19l15.89 8h46c5.41-3.301 10.7-6.602 16.11-9.898-0.5-5.403-1.11-10.801-1.61-16.301-0.2-2.102-1.7-15.5-13.5-23.801-8-5.602-16.39-5.801-19.39-5.699-1.2 2.199-3.5 3.398-5.81 3.097-3.1-0.296-4.5-3-4.6-3.199zm57.5 367.4h76.21v-46.8h-76.21zm146-320.2c-6.5-3.097-11.29-6.398-14.5-9-5.59-4.398-9.79-9.097-15.2-8.398-1.39 0.199-2.59 0.699-3.3 1.102 1.71 2 2.1 4.796 1 7.097-1 2-3.09 3.403-5.4 3.5-0.39-1.801-0.8-3.597-1.19-5.301-0.7 0.204-1.41 0.403-2 0.602-0.2 0.699-0.41 1.699-0.61 3.102-0.59 4.597-1.3 9.5 1.3 12.5 0.61 0.699 2.2 2.097 5.5 2.5 0.61 0.398 1.31 0.898 2 1.296 0-1.5-0.1-8.796 0-14.199 0.11-6 4.61-6.699 4.61-6.699 1.89-0.102 4.39 0.102 5.89 1.801 1.7 1.699 1.31 4.097-0.19 13.699-0.91 5.199-1.41 8.199-1.81 10 1.61 0.801 3.31 1.5 5.2 2.199 7.11 2.801 13.61 4.101 18.61 4.801 0.89-1.6 2.89-5.398 2.8-10.602 0.09-4.699-1.8-8.398-2.71-10zm-370.9 43.602v92.3h69.601v-67.7l-23.8-24.6zm442.4 204.1h-327.7c-6.59 0-12-5.4-12-12v-181.9c0-6.6 5.41-12 12-12h327.7c6.6 0 12 5.4 12 12v181.8c0 6.7-5.4 12.1-12 12.1" fill="#385640"/></g>
  <g clip-path="url(#clip1)" id="change1_1">
   <path d="m540.02 322.4v-140c0-6.1-4.91-11-11-11h-204.41c-6.09 0-11 4.9-11 11v140c0 6.1 4.91 11 11 11h204.41c6.09-0.1 11-5 11-11zm-352.81 53.2h-149.89c-6.707 0-12.207-5.5-12.207-12.2v-89.9c0-6.7 5.5-12.2 12.203-12.2h149.89c6.7 0 12.2 5.5 12.2 12.2v89.9c0 6.7-5.39 12.2-12.2 12.2" fill="#fff"/>
  </g>
  <g id="change1_4"><path d="m183.82 193.7h-48c-3.61 0-6.61-3-6.61-6.6v-4.2c0-3.6 3-6.6 6.61-6.6h48c3.59 0 6.59 3 6.59 6.6v4.2c0 3.7-3 6.6-6.59 6.6zm90.5 108.2h-70.41v-10.7h70.41zm31.89-32.1h-102.3c-0.3-1.5-1.2-5-4.2-8.1-4.3-4.5-9.89-4.8-11.1-4.8h-47.2v-8.7h10.41c4.79-7.9 13.09-18.9 25.59-21.2 17.11-3.1 25.11 13.3 42.11 10.7 20.19-3.2 23.3-28.4 39.69-27.7 13.9 0.6 19.7 19.1 33.31 17.3 6.3-0.8 11-5.7 13.69-9.4zm142.2-129.1c0 3.1-2.5 5.6-5.59 5.6-3.11 0-5.61-2.5-5.61-5.6s2.5-5.6 5.61-5.6c3.09 0 5.59 2.5 5.59 5.6zm-29-5.6c-3.09 0-5.59 2.5-5.59 5.6s2.5 5.6 5.59 5.6c3.11 0 5.61-2.5 5.61-5.6s-2.5-5.6-5.61-5.6zm-20.2 5.6c0 3.1-2.5 5.6-5.6 5.6-3.09 0-5.59-2.5-5.59-5.6s2.5-5.6 5.59-5.6c3.1 0 5.6 2.5 5.6 5.6" fill="#fff"/></g>
  <g id="change2_2"><path d="m101.91 350.8h-10.394v-30.8h10.394zm-17.695 1.6h-10.399v-49.9h10.399zm-18.399-0.5h-10.402v-37.9h10.402zm438-54.8c-1.5 5.9-7.11 10.4-13.91 10.9 0-1.2 0-2.4 0.11-3.7 0.09-1.2 0.3-2.3 0.59-3.3 0.21-0.2 2.8-2.4 2.41-5.8-0.31-2.1-1.5-3.3-2-3.8-0.5 0.1-2.91 0.5-5.11-1-2.8-1.8-3.09-4.9-3.2-5.3-0.89 0.5-2.19 1.4-3.5 2.7v-9c0.81-0.3 10.31-3.2 17.9 2.8 1 0.7 8.8 7 6.71 15.5zm-96.21-9v-32.2c9.71 5.3 19.41 10.5 29 15.8-9.7 5.5-19.4 10.9-29 16.4zm-80.09-61.1v93.2h186.09v-93.2h-186.09" fill="#0f0e0c"/></g>
  <g id="change3_2"><path d="m189.71 301.9h-33.19v4.5h33.19zm-55.89-8.7c-6.5 0-11.8 5.3-11.8 11.8s5.3 11.8 11.8 11.8 11.79-5.3 11.79-11.8-5.29-11.8-11.79-11.8zm-50.207-27.7c-2.398 0-4.297 1.9-4.297 4.3s1.899 4.3 4.297 4.3c2.403 0 4.301-1.9 4.301-4.3s-2-4.3-4.301-4.3zm-17 0c-2.398 0-4.297 1.9-4.297 4.3s1.899 4.3 4.297 4.3c2.403 0 4.301-1.9 4.301-4.3s-2-4.3-4.301-4.3zm-17.797-0.1c-2.402 0-4.3 1.9-4.3 4.3s1.898 4.3 4.3 4.3c2.399 0 4.297-1.9 4.297-4.3-0.097-2.4-2-4.3-4.297-4.3zm445.59-56.8h-130.2v5.7h130.2zm-53.2-14.2h-77v7.1h77zm-103.69-2.6c-5.5 0-9.91 4.5-9.91 9.9 0 5.5 4.5 9.9 9.91 9.9 5.39 0 9.89-4.5 9.89-9.9s-4.39-9.9-9.89-9.9zm-145.5 157.3h-66.31v6h66.31zm0-11.2h-66.31v6h66.31zm0-5.3h-66.31v-6h66.31v6" fill="#385640"/></g>
  <g id="change1_5"><path d="m460.02 281.5c6.69-3 10-4.9 9.69-5.6-0.19-0.5-1.8-0.5-4.89 0-0.3-8.9-1.11-13.5-2.5-13.7-1.61-0.2-3.91 5.2-7 16.1zm23.8 9c2.09 1.3 4.2 1 4.7 0.9 0.39 0.4 1.59 1.5 1.8 3.4 0.39 3-2 5.1-2.21 5.3-0.2 0.9-0.4 1.9-0.5 3-0.4 3.6 0.21 6.7 0.91 8.8-1.11 2.2-3.41 3.1-5.2 2.5-1.61-0.6-2.21-2.2-2.3-2.5v-4.7c-4.31-0.1-6.2-2.2-6.61-2.7-3.39-3.9-0.7-10.5 1.3-13.7 1.81-2.8 4.11-4.4 5.4-5.2-0.09 0.4 0.21 3.3 2.71 4.9" fill="#fff"/></g>
  <g id="change1_6"><path d="m159.91 91c-4.5 1.199-12.7 4.301-17.09 11.9-2.11 3.7-2.8 7.5-2.61 21 0.11 6.9 0.5 15.9 1.4 26.6 4.8 0.5 9.5 0.9 14.3 1.4l3.2-37.1 25-16.698 22.21 12.898 0.59 40.9 15.11 1c1.19-11.3 2.09-21.3 2.8-29.7 0.79-10.9 1-15.6-1.41-20.8-3.39-7.4-9.7-11.502-13.7-13.599l-3.8 2.199zm199-18.699c1.7 1.801 1.3 4.097-0.2 13.699-1.69 10.5-2 11.898-3.6 13.301-2.2 1.899-5.29 1.799-11.4 1.599-10.1-0.4-12.19-2.9-20.19-2.099-2.61 0.301-5.91 0.898-6 0.5-0.11-0.301 1.59-1.102 3.09-1.699-7.5-0.704-11.29-1.301-11.29-1.801s4.39-0.801 13.2-1l25.89-3.102s-0.09-8.398 0-14.398c0.11-6 4.61-6.699 4.61-6.699 1.89-0.102 4.39 0.097 5.89 1.699" fill="#fff"/></g>
  <g id="change2_3"><path d="m389.32 135.8c-2.71 0-4.91 2.2-4.91 4.9s2.2 4.9 4.91 4.9c2.7 0 4.89-2.2 4.89-4.9 0.11-2.7-2.19-4.9-4.89-4.9zm0 11.2c-3.5 0-6.3-2.8-6.3-6.3s2.8-6.3 6.3-6.3 6.29 2.8 6.29 6.3-2.79 6.3-6.29 6.3" fill="#0f0e0c"/></g>
  <g id="change2_4"><path d="m415.11 135.8c-2.7 0-4.9 2.2-4.9 4.9s2.2 4.9 4.9 4.9c2.71 0 4.91-2.2 4.91-4.9 0.09-2.7-2.2-4.9-4.91-4.9zm0 11.2c-3.5 0-6.29-2.8-6.29-6.3s2.79-6.3 6.29-6.3 6.3 2.8 6.3 6.3-2.8 6.3-6.3 6.3" fill="#0f0e0c"/></g>
  <g id="change2_5"><path d="m438.52 135.8c-2.7 0-4.91 2.2-4.91 4.9s2.21 4.9 4.91 4.9c2.69 0 4.89-2.2 4.89-4.9 0.11-2.7-2.09-4.9-4.89-4.9zm0 11.2c-3.5 0-6.31-2.8-6.31-6.3s2.81-6.3 6.31-6.3 6.3 2.8 6.3 6.3-2.8 6.3-6.3 6.3" fill="#0f0e0c"/></g>
  <g id="change2_6"><path d="m462.91 363c0-0.4 0-0.9 0.11-1.3h-152.31c0 0.4 0 0.9-0.1 1.3h0.91c0.09 0.4 0.19 0.7 0.3 1.1h5.29v45.5h-74.9v-6.1c-0.39 0-0.89-0.1-1.3-0.1v6.9c0 0.4 0.3 0.7 0.7 0.7h76.21c0.39 0 0.7-0.3 0.7-0.7v-46.8c0-0.2-0.11-0.3-0.2-0.4h144.59zm4 109.8c-9.8 3.2-14.59 5.5-14.39 6.8 0.3 1.7 8.8 2 25.5 0.7-0.11-2.5-0.11-5-0.2-7.5zm21.91-181.3c0.39 0.4 1.59 1.5 1.79 3.4 0.41 3-2 5.1-2.2 5.3-0.2 0.9-0.39 1.9-0.5 3-0.09 1.2-0.09 2.3-0.09 3.4 6.2-0.4 11.29-4.5 12.7-9.9 1.89-7.7-5.2-13.4-6.11-14.2-6.89-5.5-15.5-2.8-16.3-2.5v8.2c1.21-1.2 2.41-2 3.1-2.4 0 0.4 0.31 3.2 2.9 4.9 2.1 1.2 4.21 0.9 4.71 0.8zm-283.41 53.7c-0.39 0-0.7 0.3-0.7 0.7s0.31 0.7 0.7 0.7h256.8c5 0 9.61-2.2 12.81-6.1 0.19-0.3 0.19-0.7-0.11-0.9s-0.7-0.2-0.89 0.1c-2.91 3.6-7.2 5.6-11.7 5.6h-256.91zm105.41 10.6h-76.21l38.1 21.4zm-186.71-26.4h65v-4.7h-65zm-1.29 0.7v-6c0-0.4 0.29-0.7 0.7-0.7h66.3c0.39 0 0.7 0.3 0.7 0.7v6c0 0.4-0.31 0.7-0.7 0.7h-66.3c-0.41 0-0.7-0.3-0.7-0.7zm313.79-137.6h-75.7v5.8h75.7zm1.3-1.3v8.4h-78.3v-8.4zm59.7 276.4c-7.5 6.7-10.79 10.7-9.9 12 1.11 1.7 8.4-0.6 22-6.8-0.5-1.7-1-3.5-1.5-5.2zm-373.5-115.6h65v-4.7h-65zm-1.29-5.4c0-0.4 0.29-0.7 0.7-0.7h66.3c0.39 0 0.7 0.3 0.7 0.7v6c0 0.4-0.31 0.7-0.7 0.7h-66.3c-0.41 0-0.7-0.3-0.7-0.7zm386.89-7.7h-7.69c0.09 0.4 0 0.9-0.2 1.3h8.39c-0.3-0.3-0.39-0.6-0.39-1 0-0.1-0.11-0.2-0.11-0.3zm-385.6 1.8h65v-4.7h-65zm-1.29-5.3c0-0.4 0.29-0.7 0.7-0.7h66.3c0.39 0 0.7 0.3 0.7 0.7v6c0 0.4-0.31 0.7-0.7 0.7h-66.3c-0.41 0-0.7-0.3-0.7-0.7zm183.39-6c-0.39-1.4-0.6-2.8-0.6-4.3v-97c-4 4.8-8.29 7.6-13 8.2-7.4 1-12.59-3.8-17.59-8.4-4.61-4.2-9.31-8.6-15.7-8.8-7.71-0.3-12.41 5.4-17.71 12-5.29 6.6-11.4 14.1-21.79 15.7-8.61 1.4-15.11-2.1-21.3-5.5-6.41-3.5-12.5-6.7-20.91-5.2-9.2 1.7-17.4 8.4-24.59 20.1h35.69c8.81 0 16 7.2 16 16v57.3h101.5zm-102.89-56.5c0-8.5-6.91-15.4-15.41-15.4h-142c-8.594 0-15.594 7-15.594 15.6v9h173zm-118.91-49.1v-66.8l-0.301-0.3h-22.898v-23.7l-0.301-0.3h-44.801v91h68.301zm448.8-31.8v133.1c0 6.6-4.3 12.2-10.19 14.3 0.09-0.5 0.09-0.9-0.11-1.4 5.2-2 9-7 9-12.9v-133.1c0-7.6-6.2-13.8-13.8-13.8h-197.4c-7.6 0-13.8 6.2-13.8 13.8v133.1c0 7.6 6.2 13.8 13.8 13.8h142c-0.19 0.4-0.19 0.9-0.1 1.3h-141.9c-6.39 0-11.89-4-14.1-9.6-0.09 0.1-0.2 0.1-0.4 0.1h-101.6v24.4c0 2.3-0.5 4.5-1.29 6.5h31.09c-0.09 0.4-0.09 0.9-0.09 1.3h-31.61c-2.8 5.3-8.3 8.8-14.69 8.8h-136.91c-0.395 0-0.696-0.3-0.696-0.7s0.301-0.7 0.699-0.7h136.8c8.5 0 15.41-6.9 15.41-15.4v-71.7h-173l-0.004 34.3c1.899-1.3 4.399-2.6 7.5-3.2 7.5-1.2 12.899 2.7 13.899 3.4l-3.602 6.5-0.097 0.1c-0.102-1.3-0.2-2.4-0.301-3.3-0.801 1.4-2.801 4.2-6.301 6.2-2.5 1.4-4.801 1.9-6.301 2.1-1.199 0.5-2 1.5-2.199 2.7-0.199 1.5 0.699 3 2.199 3.6v4.9c-1-0.5-3-1.7-4.898-3.7v0.2 8.3c0 0.4-0.301 0.7-0.699 0.7-0.403 0-0.7-0.3-0.7-0.7v-8.3c0-0.4 0.297-0.7 0.7-0.7 0.097 0 0.199 0 0.3 0.1-0.601-0.7-1.203-1.5-1.8-2.5-3.403-5.7-2.102-11.5-1.7-12.8 0.399-0.5 1.297-1.6 2.7-2.8-0.102-0.1-0.2-0.3-0.2-0.4v-45.2c0-9.2 7.5-16.7 16.7-16.7h15.097v-31h-45.199c-0.398 0-0.699-0.3-0.699-0.7v-92.3c0-0.4 0.301-0.7 0.699-0.7h45.801c0.199 0 0.301 0.1 0.5 0.2l23.801 24.6c0.097 0.1 0.199 0.3 0.199 0.5v67.7c0 0.4-0.301 0.7-0.699 0.7h-23.102v31h49.796v-116.4c0-8.8 7.2-16 16-16h12.5c0 0.4 0.11 0.9 0.2 1.3h-12.3c-8.29 0-15.09 6.8-15.09 15.1v16.1h16.3c3-1.4 7.89-3.2 14.7-5.4 3.19 0.3 6.3 0.6 9.5 0.9-0.2 1.9-0.31 3.8-0.5 5.7 0.09-0.4 0.19-0.8 0.3-1.2h55.29v-4.1c3.5 0.2 7 0.5 10.5 0.7 6 1.8 10.3 3.2 12.91 4.4-0.5-0.4-1-0.7-1.7-1h233v-16.1c0-8.3-6.8-15.1-15.11-15.1h-223.3c0.11-0.4 0.11-0.9 0.11-1.3h224.19c8.61 0 15.61 7 15.61 15.6v32.2c0 0.4-0.3 0.7-0.71 0.7-0.4 0-0.7-0.3-0.7-0.7v-13.9h-230.59c1.5 0.8 2.29 1.4 2.2 1.9-0.31 1.7-9.11 1.9-26.41 0.8v-2.7h-55.59c0 0.4-0.11 0.8-0.11 1.2-17.89 1.9-27 2.1-27.39 0.4-0.11-0.4 0.39-0.9 1.3-1.6h-13.91v98.8h38.3c7.5-12.4 16.2-19.6 26-21.4 8.9-1.6 15.4 1.9 21.7 5.3s12.2 6.6 20.41 5.3c9.89-1.6 15.59-8.5 21-15.3 5.29-6.6 10.39-12.8 18.79-12.5 6.91 0.3 11.8 4.8 16.6 9.2 5.11 4.6 9.81 9 16.61 8.1 4.7-0.6 9.09-3.7 13.2-9v-34c0-8.3 6.8-15.1 15.09-15.1h156.6v-53.1c0-8.4-6.8-15.2-15.19-15.2h-236.41c0-0.4-0.09-0.9-0.2-1.3h236.8c1 0 2 0.1 2.9 0.3-1.29-1-3.09-3.9-5.4-8.6-0.3-2.102-0.6-4.301-0.89-6.398h7.7c1.19 9.498 1.09 14.598-0.2 15.298 7.09 1.8 12.29 8.3 12.29 15.9v53.1h39.5c8.41 0 15.1 6.8 15.1 15.1zm-476.19 302.8c-2.102-0.5-4.903-1.4-8.2-3.3h-9.5v8.5c7.7 0 15.5-0.1 23.2-0.1 0-0.8-0.102-1.9-0.7-2.8-1.101-1.7-3.101-1.9-4.8-2.3zm303.89-283.8h128.91v-4.4h-128.91zm-1.3-5.6h131.5v7h-131.5zm-183.5-181.7c-0.2-0.301-0.4-0.597-0.5-0.898-3.09-5.801 1.3-12.602 1.6-13.102 1.7 1.5 3.9 3.301 6.81 4.903 2.39 1.296 4.69 2.199 6.5 2.796 0.19 1 0.3 2.903-0.31 5-0.5 1.602-1.3 2.903-2 3.801 0.9-0.5 7.31-4.199 8.31-11.597 0.5-3.903-0.11-11.301-5.81-13.801-4.1-1.801-9.39-0.50022-13.1 3.3006-0.79-0.2032-5.29-0.9024-8.29 1.7968-4 3.6016-3.11 10.903 0.59 14.704 2.2 2.199 4.91 2.898 6.2 3.097zm-17.2 101.2h47.7v-1.3h-47.5c0 0.4-0.09 0.9-0.2 1.3zm319.7-29.002c12.5 0 22.71 10.202 22.71 22.702v53.1h0.79 0.5v-53.1c0-13.2-10.79-23.998-24-23.998h-11.79c0.09 0.398 0.09 0.898 0.09 1.296zm-17.79-38.296c-0.11-1.301-6.71-2.102-19.91-2.403l-2 4.801 5 2.5c11.41-2 17-3.699 16.91-4.898zm-241 38c0.09 0.097 0.09 0.199 0.2 0.296h72.3l2.39 5.302h28.7v-2.2l-3.89-0.801h-23l-11.2-26.398h-3.8l10.09 22.699h-72.5c0.3 0.398 0.5 0.699 0.71 1.102zm-13.91-4.602l3.8-26.602h-53.8l4 26.602zm-180.39 400.5c-1.7-0.6-4.102-1.9-6.5-4.5h-10.7l-0.9019 8.8c7.9019 0.8 15.699 1.7 23.602 2.5 0.097-1.4 0.097-3.2-1.102-4.6s-2.598-1.6-4.398-2.2zm36.398-372.9c0-12.5 10.199-22.702 22.699-22.702h63.907c0.59-0.5 1.09-0.898 1.8-1.296h-65.707c-13.199 0-24 10.798-24 23.998v12.3c0.5 0.2 0.903 0.5 1.301 0.9zm33.699 5.3v131.5c0 0.4 0.301 0.7 0.703 0.7 0.399 0 0.7-0.3 0.7-0.7v-131.5c0-8.4 6.804-15.2 15.194-15.2h28.61c0.09-0.4 0.2-0.9 0.29-1.3h-28.9c-9.19 0-16.597 7.4-16.597 16.5zm104.8-15.9c0 0.2-0.09 0.5-0.09 0.7h-30.8c0.5-0.4 1-0.8 1.39-1.3h28.7c0.21 0.2 0.5 0.4 0.8 0.6zm5.8 15.6h-47.3v1.3h47.2c0-0.4 0-0.9 0.1-1.3zm-130.3 84.5v-1.2c0-1-0.801-1.8-1.801-1.8h-48.199c-1 0-1.801 0.8-1.801 1.8v1.2c0 1 0.801 1.8 1.801 1.8h48.199c1 0 1.801-0.8 1.801-1.8zm0-13.1v-1.2c0-1-0.801-1.8-1.801-1.8h-48.199c-1 0-1.801 0.8-1.801 1.8v1.2c0 1 0.801 1.8 1.801 1.8h48.199c1 0.1 1.801-0.8 1.801-1.8zm0-13v-1.2c0-1-0.801-1.8-1.801-1.8h-48.199c-1 0-1.801 0.8-1.801 1.8v1.2c0 1 0.801 1.8 1.801 1.8h48.199c1 0.1 1.801-0.8 1.801-1.8zm0-11.8v-1.2c0-1-0.801-1.8-1.801-1.8h-48.199c-1 0-1.801 0.8-1.801 1.8v1.2c0 1 0.801 1.8 1.801 1.8h48.199c1 0 1.801-0.8 1.801-1.8zm-26.398-19.2h-23.602c-1 0-1.801-0.8-1.801-1.8v-1.2c0-1 0.801-1.8 1.801-1.8h23.5c1 0 1.801 0.8 1.801 1.8v1.2c0.101 0.9-0.699 1.8-1.699 1.8" fill="#0f0e0c"/></g>
  <g id="change2_7"><path d="m223.02 102.5c-2.41-5.398-6.81-9.801-13.11-13.102l-3.39 2.102c-0.11 0.102-0.2 0.102-0.31 0.102h-45.89c-5.41 1.5-12.61 4.796-16.61 11.598-2 3.5-2.69 7.2-2.5 20.7 0.11 8.6 0.61 17.3 1.31 26l13.09 1.3 3.1-36.4c0-0.2 0.11-0.4 0.31-0.5l25-16.698c0.19-0.102 0.5-0.102 0.69 0l22.2 12.898c0.2 0.1 0.3 0.3 0.3 0.6l0.61 40.2 13.79 0.9c1.1-9.7 2-19.5 2.71-29.1 0.89-11.2 1-15.5-1.3-20.6zm1.19-0.5c2.4 5.3 2.31 9.8 1.4 21.1-0.79 9.8-1.7 19.9-2.79 29.8 0 0.3-0.3 0.6-0.71 0.6l-15.09-1c-0.31 0-0.61-0.3-0.61-0.6l-0.59-40.5-21.5-12.502-24.41 16.302-3.09 36.8c0 0.2-0.11 0.3-0.21 0.4-0.09 0.1-0.29 0.2-0.5 0.1l-14.29-1.4c-0.3 0-0.61-0.3-0.61-0.6-0.8-8.9-1.19-17.8-1.39-26.6-0.21-13.8 0.5-17.6 2.7-21.4 4.19-7.199 11.8-10.602 17.39-12.199h0.2 45.8l3.61-2.199c0.19-0.102 0.39-0.102 0.69 0 6.7 3.398 11.4 8.097 14 13.898zm-119.8 219.8c-0.2-0.3-0.5-0.5-1-0.5h-0.09c-1.8 0-6.105 1.8-8.804 5.4-2 2.8-2.403 6-2.403 8.1 0 0.4 0.301 0.7 0.703 0.6 0.399 0 0.7-0.3 0.598-0.7 0-1.9 0.301-4.8 2.102-7.3 2.199-3.1 5.894-4.6 7.304-4.8-0.5 0.6-1.91 2-5.707 5-0.199 0.2-0.297 0.4-0.199 0.7 0.102 0.2 0.301 0.4 0.5 0.5 2.199 0.5 4.496 1.5 4.606 2.3 0 0.3-0.5 0.9-1.81 2-1.495 1.3-2.995 2.4-4.597 3.5-0.297 0.2-0.398 0.6-0.199 0.9 0.102 0.2 0.301 0.3 0.5 0.3 0.102 0 0.301 0 0.402-0.1 1.598-1.1 3.2-2.3 4.704-3.6 1.69-1.5 2.3-2.2 2.3-3-0.11-1.7-2.5-2.7-4.304-3.2 5.694-4.5 5.804-5.4 5.394-6.1zm355-229.3c0-0.301-0.3-0.5-0.59-0.602l-28.8-1.796 14.39-27.301c0.11-0.199 0.11-0.301 0-0.5-0.09-0.199-0.2-0.301-0.3-0.403l-5.7-2.898c-0.3-0.102-0.59-0.102-0.8 0.199l-18.9 26.602-27.5-3.801c-0.39-0.102-0.69 0.199-0.69 0.602-0.11 0.398 0.19 0.699 0.59 0.699l27.91 3.898c0.3 0 0.5-0.097 0.59-0.301l18.8-26.398 4.61 2.301-14.41 27.199-26.5-2.801c-0.4 0-0.7 0.199-0.7 0.602 0 0.398 0.2 0.699 0.61 0.699l27 2.801 29.3 1.898 1 7.101h-27.91l-49.7 0.2c-0.39 0-0.69 0.3-0.69 0.7s0.3 0.7 0.69 0.7l49.7-0.2h28.7c0.21 0 0.41-0.1 0.5-0.2 0.1-0.1 0.21-0.3 0.21-0.5zm21.61 303zm21.39 37.9l7.41 34c0 0.2 0 0.4-0.11 0.6-0.1 0.2-0.3 0.2-0.5 0.2h-11.5c-0.3 0-0.6-0.2-0.6-0.5l-9.2-31.8-6.09-36.2-4.61 30 1.4 43c0 0.2-0.09 0.4-0.2 0.5-0.09 0.1-0.3 0.2-0.5 0.2h-11c-0.3 0-0.59-0.2-0.7-0.6l-5.8-39.5 2.11-58.9c0-0.4 0.3-0.6 0.69-0.6 0.4 0 0.61 0.3 0.61 0.7l-2.21 58.8 5.71 38.9h9.7l-1.41-42.4 5.3-34.1v-9.8c0-0.4 0.3-0.7 0.7-0.7 0.41 0 0.71 0.3 0.71 0.7v9.8-0.1c0-0.2-0.11-0.3-0.21-0.4l0.21 0.4v0.2-0.2l6.79 40 9 31.3h10.21l-7.21-33.3-2.5-58.3c0-0.4 0.3-0.7 0.6-0.7 0.4 0 0.7 0.3 0.7 0.6zm24.11-60.7c0-0.4-0.41-0.6-0.7-0.6-0.41 0-0.61 0.4-0.61 0.7 1.4 13.9 0.2 15.3 0 15.4-0.1 0-1.39-0.2-5.39-9.1-0.11-0.3-0.41-0.4-0.61-0.4-0.3 0-0.5 0.2-0.6 0.5-0.29 1.1-0.59 1.9-0.79 2.4-0.11-1.1-0.21-3.4 0.09-8.3 0-0.4-0.3-0.7-0.59-0.7-0.41-0.1-0.71 0.3-0.71 0.6-0.5 10.2 0.21 10.3 0.91 10.4 0.59 0.1 1.09-0.3 1.8-2.4 3.2 7 4.7 8.4 5.79 8.4h0.3c1.41-0.4 2.5-2.7 1.11-16.9zm-168-299.9c-1.11-1.199-2.91-1.699-5.41-1.602-0.4 0.102-3.9 0.903-4 6.102-0.09 6 0 14.301 0 14.398 0 0.301-0.2 0.602-0.59 0.699l-25.91 3.102c-5.79 0.102-9 0.301-10.7 0.5 1.5 0.301 4.2 0.602 8.8 1.102 0.31 0 0.5 0.296 0.61 0.597 0 0.301-0.11 0.602-0.41 0.699-0.3 0.102-0.7 0.301-0.89 0.403 0.39 0 0.69-0.102 1.09-0.102 0.8-0.097 1.6-0.199 2.41-0.301 1.19-0.097 2.19-0.199 3.19-0.199 2.7 0 4.81 0.403 7.2 0.903 2.61 0.5 5.5 1.098 10 1.298h0.2c5.8 0.2 8.8 0.3 10.8-1.4 1.41-1.199 1.61-2.602 3.3-12.898 1.4-9.5 1.7-11.801 0.31-13.301zm-11.5-6.102c-1-0.097-2.5-0.5-3.81-1.699-0.69-0.602-1.19-1.398-1.6-2.199v-0.199c0-0.204-0.2-1.204-1.09-1.903-1-0.699-2-0.398-2.31-0.301-1.19 0.801-3.1 1.801-5.6 2.102-1.9 0.199-3.5-0.102-4.79-0.5 0.39 1.801 1.09 3.5 2.2 5 0.8 1.199 2.59 3.602 5.89 4.398 2.5 0.602 4.8-0.097 5.91-0.597 0.09 0 0.2-0.102 0.29-0.102 0.1 0 0.21 0 0.3 0.102 0.2 0.097 0.3 0.301 0.3 0.398l1.11 4.801c0.89-0.102 2.2-0.398 3.2-1.5 1.5-1.699 1.59-5 0-7.801zm12.39 5.199c1.91 2 1.5 4.903-0.09 14.301-1.8 10.699-2.11 12.199-3.8 13.602-1.7 1.499-3.81 1.899-7.11 1.899-1.3 0-2.8-0.1-4.59-0.1h-0.21c-4.59-0.2-7.59-0.8-10.2-1.3-3.2-0.698-5.59-1.198-9.89-0.698-0.81 0.097-1.61 0.199-2.41 0.296-3 0.402-4.09 0.602-4.29-0.296-0.11-0.5 0.09-0.903 1.2-1.403-9.41-1-9.41-1.5-9.41-2.199 0-0.801 0.1-1.398 13.8-1.699l25.3-3c0-2-0.1-8.801 0-13.903 0-0.796 0.11-1.5 0.31-2.199-0.11 0.102-0.2 0.301-0.31 0.403-1.5 1.597-3.6 1.796-4.69 1.898-0.31 0-0.61-0.199-0.61-0.5l-1-4.602c-1.5 0.5-3.59 0.903-6 0.301-3.8-0.898-5.8-3.699-6.7-4.898-1.39-1.903-2.3-4.301-2.6-6.699 0-0.204 0.1-0.5 0.3-0.602s0.41-0.199 0.61-0.102c1.09 0.5 3 1 5.19 0.801 2.31-0.199 4-1.199 5.11-1.898 0 0 0.09-0.102 0.2-0.102 0.3-0.097 2-0.597 3.59 0.403 1.3 0.898 1.6 2.199 1.71 2.699 0.29 0.699 0.7 1.199 1.2 1.699 1.19 1.102 2.59 1.301 3.39 1.398 0.2 0 0.41 0.102 0.5 0.301 1.3 2.102 1.8 4.403 1.41 6.5 1.5-2 3.59-2.301 3.59-2.301h0.11c2.89-0.097 5 0.5 6.39 2zm-324.89 264.3v9.4c0 0.4 0.3 0.7 0.699 0.7 0.398 0 0.699-0.3 0.699-0.7v-9.8c0-0.3-0.199-0.5-0.398-0.6-1.2-0.5-2-1.7-1.801-2.9 0.101-0.9 0.801-1.7 1.699-2.1 2.301-0.3 4.5-1 6.5-2.1 2.5-1.4 4.301-3.2 5.5-4.8 0.102 1 0.102 1.9 0.102 2.9 0.097 5.4 0.097 8.3-1.7 10.4-0.8 1-2 1.7-3.5 2.2-0.3 0.1-0.5 0.3-0.5 0.6v6.3c0 0.4 0.297 0.7 0.7 0.7 0.398 0 0.699-0.3 0.699-0.7v-5.8c1.5-0.5 2.699-1.4 3.601-2.4 2.2-2.6 2.2-6.1 2.098-11.3 0-1.6-0.098-3.2-0.301-4.8 0-0.3-0.199-0.5-0.5-0.6-0.297-0.1-0.597 0.1-0.699 0.3-1 1.7-2.898 4.2-6.098 5.9-1.902 1-3.902 1.7-6.101 2h-0.199c-1.403 0.5-2.403 1.8-2.602 3.2-0.398 1.5 0.5 3.1 2.102 4zm143.3-309.9l-1.11 8.801c0 0.398 0.2 0.699 0.61 0.699 0.29 0 0.7-0.199 0.7-0.602l1.09-9.199c0-0.199-0.09-0.5-0.2-0.602-1.09-0.796-2-1.898-2.5-3-2.39-4.597 0.2-9.898 1.2-11.796 2 1.699 4.1 3.199 6.41 4.5 2 1.097 4.09 2 6.3 2.699 0.2 1.5 0.09 3-0.41 4.301-0.7 2.296-2 3.796-3 4.597-0.2 0.102-0.2 0.301-0.2 0.5l0.4 7.903c0 0.398 0.3 0.597 0.71 0.597 0.39 0 0.59-0.301 0.59-0.699l-0.39-7.602c1.09-1 2.39-2.597 3.19-5 0.5-1.699 0.7-3.597 0.4-5.398 0-0.199-0.2-0.398-0.4-0.5-2.19-0.699-4.39-1.602-6.39-2.801-2.41-1.301-4.71-3-6.71-4.8006-0.09-0.0976-0.29-0.1992-0.5-0.1992-0.2 0-0.4 0.1016-0.5 0.3008-0.5 0.8008-4.9 7.699-1.7 13.801 0.41 1.5 1.3 2.597 2.41 3.5zm-124 419.7l-4.203-37.6c-4.898-1.6-10-2.5-15.097-2.7-5.903-0.3-11.7 0.3-17.403 1.7l-0.597 43.6-7.4027 35.3h9.4027l9.597-30.3c0.301-1.4 6.602-35.5 7.102-37.2 0.101-0.3 0.5-0.6 0.801-0.5 0.3 0.1 0.597 0.5 0.5 0.8-0.102 0.5-0.801 3.7-1.602 8.2l5 20.7v0.2 42.7h8.199zm-2.902-38.1l4.199 38.1v0.2l-5.699 45.5c0 0.3-0.301 0.6-0.699 0.6h-9.5c-0.399 0-0.699-0.3-0.699-0.7v-43.3l-4.5-17.7c-1.5 8.1-3.602 18.8-4.903 25.8l-9.699 30.9c-0.098 0.3-0.301 0.5-0.598 0.5h-10.5c-0.2027 0-0.4019-0.1-0.4996-0.2-0.1016-0.2-0.2031-0.4-0.1016-0.5l7.6012-36 0.598-43.9c0-0.3 0.199-0.6 0.5-0.6 6-1.6 12.102-2.2 18.301-1.9 5.398 0.3 10.699 1.3 15.801 2.9 0.199-0.2 0.3 0 0.398 0.3zm-44.5-1.8c-0.5 0.6-1 1.2-1.3985 1.9-1.1992 1.8-1.6015 3.4-2 4.5-0.3008 1-0.5 1.7-1.1992 1.7-0.2031 0-0.4023-0.1-0.6016-0.3-0.89839-1-1.3007-5.6-1.1992-9.3 0.09768-2.5 0.50002-5 1.1992-7.5 0.1016-0.3 0.5-0.6 0.8008-0.5 0.3985 0.1 0.5977 0.5 0.5 0.8-0.6015 2.4-1 4.8-1.1015 7.2-0.1993 3.2 0.1992 6 0.5 7.4 0.3007-1.1 0.9023-2.8 2.1015-4.7 0.5977-1 1.3985-1.9 2.1992-2.8 0.1016-0.1 0.3985-0.2 0.6016-0.2 0.1992 0 0.3984 0.2 0.5 0.3 0.5 0.9 0.7969 1.3 1 1.6 0.1992-0.7 0.2969-2.6-0.4023-8.4 0-0.4 0.1992-0.7 0.6015-0.7 0.3985-0.1 0.6992 0.2 0.6992 0.6 1.1012 8.9 0.3985 9.8-0.5 10.1-1 0.1-1.6015-0.6-2.3007-1.7" fill="#0f0e0c"/></g>
  <g id="change3_3"><path d="m481.02 311.9c-3.2 0.7-9 1.4-15.91-0.1-7.59-1.7-12.9-5.4-15.5-7.5l12.91-21-8.41-5.8c-6.29 5.8-10.4 11.4-12.9 15.5-3.89 6.1-6 9.4-5.39 13.7 0.7 5.4 5.2 8.9 9.89 12.4 3 2.3 8.4 5.8 16.4 7.7 0.41 15.9 0.8 31.9 1.3 47.8 4.5 1.4 11 2.8 18.91 2.9 8.2 0 15-1.5 19.59-2.9v-41c1.91 0.8 5 2.4 7.91 5.6 2.59 2.8 3.89 5.5 4.7 7.4 0.59 8.9 1.19 17.9 1.8 26.8l11.5-0.5c-0.11-3.2-0.3-7.7-0.91-13.1-1.3-11.1-2.5-21.3-8.8-31.4-2.7-4.4-6.2-10-13.29-13.5-6.61-3.2-12.91-3-16.11-2.7-0.6 1.7-2.3 2.8-4 2.7-1.8-0.4-3.19-1.5-3.69-3zm-438.61 33.6l25.301 8.5 24.5-19.7 4.601 3.3c-4.402 6.7-8.601 12-11.8 15.9-6.403 7.6-9.2 9.6-12.602 10.4-2 0.5-4.398 0.3-9.199 0-4.699-0.3-8.602-0.8-11.399-1.3-0.601 6.7-0.902 13.9-0.902 21.6 0 8.4 0.301 16.3 0.902 23.5-5.703 0.3-11.902 0.4-18.5 0.2-5.902-0.2-11.5-0.6-16.703-1.1 0.903-5.8 1.602-12.2 1.903-19.3 0.3-6.8 0.199-13-0.2-18.6-2.601 4.6-5.3 9.2-7.902 13.7l-0.8984 15-8.6015-0.4c-0.19926-5.4 0.3007-13.2 3.1992-22.1 4.7031-14.2 13.203-23.3 17.801-27.6l13.301-1.9c0.101 0.2 1.301 1.8 3.5 1.9 2.199 0 3.601-1.8 3.699-2" fill="#385640"/></g>
 </g>
</svg>