<?xml version="1.0" encoding="UTF-8"?><svg xmlns="http://www.w3.org/2000/svg" xmlns:xlink="http://www.w3.org/1999/xlink" height="479.1" preserveAspectRatio="xMidYMid meet" version="1.0" viewBox="-0.4 0.0 452.8 479.1" width="452.8" zoomAndPan="magnify"><g><g><g id="change1_1"><path d="M357.7,0l45.2,31L144.8,406.9l-44-32.8L357.7,0z" fill="#A7DDEA"/></g><g id="change2_1"><path d="M160.7,383.7l-0.6,0.8c-8.4-5.6-16.7-11.3-25-17.1c-0.5-0.4,0-1.2,0.6-0.8 C144,372.4,152.3,378.1,160.7,383.7z M173.5,343.5c-0.5-0.4-1.1,0.5-0.6,0.8c3.3,2.4,6.7,4.7,10,6.9l0.6-0.8 C180.2,348.2,176.8,345.9,173.5,343.5z M179.1,299.2c-0.6-0.4-1.1,0.5-0.6,0.8c9.2,5.9,18.4,11.7,27.6,17.6l0.6-0.8 C197.5,310.9,188.3,305,179.1,299.2z M313.9,102.6c-0.5-0.4-1.1,0.5-0.6,0.8c8.9,6.3,18,12.5,27.1,18.5l0.6-0.8 C331.9,115.1,322.9,108.9,313.9,102.6z M352.3,80c-0.5-0.4-1.1,0.5-0.6,0.8c3.8,2.7,7.6,5.3,11.5,7.9l0.6-0.8 C360,85.3,356.1,82.6,352.3,80z M357.2,35.1c-0.6-0.4-1.1,0.5-0.6,0.8c9.9,6.3,19.8,12.7,29.8,19l0.6-0.8 C377.1,47.8,367.2,41.4,357.2,35.1z M366.6,64.8c-0.5-0.4-1.1,0.5-0.6,0.8c3,2.1,6,4,9,5.9l0.6-0.8 C372.5,68.8,369.5,66.8,366.6,64.8z M343.6,99.8c2.7,1.9,5.4,3.9,8.1,5.8l0.6-0.8c-2.7-1.9-5.4-3.9-8.1-5.8 C343.7,98.5,343.1,99.4,343.6,99.8z M188.1,328c-0.6-0.4-1.1,0.5-0.6,0.8c2.5,1.6,4.9,3.3,7.4,4.9l0.6-0.8 C193.1,331.3,190.6,329.7,188.1,328z M164.1,362.8c-0.6-0.3-1.1,0.5-0.6,0.8c2.6,1.5,5.2,3.1,7.8,4.6l0.6-0.8 C169.3,365.9,166.7,364.3,164.1,362.8z" fill="#281C22"/></g></g><g id="change3_2"><path d="M281.7,126.7c-0.2-0.2-0.5-0.5-0.7-0.7c-8.6-8.2-18.2-15.1-28.4-20.6c-0.3-0.2-0.6-0.3-0.9-0.5 c-9.6-5.1-19.8-9-30.3-11.6c-0.3-0.1-0.7-0.2-1-0.2c-11.5-2.8-23.4-4-35.4-3.6c-0.3,0-0.7,0-1,0c-11.2,0.4-22.4,2.3-33.4,5.7 c-0.3,0.1-0.6,0.2-1,0.3c-9.4,2.9-18.7,7-27.6,12.2c-0.3,0.2-0.6,0.3-0.9,0.5l0,0c-8.8,5.3-16.8,11.4-23.9,18.2 c-0.3,0.2-0.5,0.5-0.7,0.7c-8.2,8-15.2,16.9-21,26.4c-0.2,0.3-0.4,0.6-0.5,0.9c-6.1,10.3-10.8,21.3-13.9,32.7 c-0.1,0.3-0.2,0.7-0.3,1c-2.8,10.5-4.3,21.3-4.5,32.2c0,0.3,0,0.7,0,1c-0.1,11.7,1.3,23.6,4.4,35.2c0.1,0.3,0.2,0.7,0.3,1 c2.6,9.4,6.2,18.7,11,27.7c1.6,3,5.4,4.1,8.4,2.4l217.7-130c3.1-1.9,4-6,2-9C294.6,140.6,288.4,133.2,281.7,126.7z M104.8,233.3 c-18.4-30.8-0.6-69.2,36.4-91.2c37-22.1,79.2-19.6,97.6,11.2L104.8,233.3z" fill="#F2DA66"/></g><g id="change2_8"><path d="M136.9,133c0.3,0.6-0.6,1.1-0.9,0.5c-4.9-8.5-9.9-16.9-15-25.3c0.3-0.2,0.6-0.4,0.9-0.5 C127,116.1,132,124.6,136.9,133z M97.1,126.5c-0.3,0.2-0.5,0.5-0.7,0.7c4.8,6.1,9.6,12.2,14.5,18.2c0.4,0.5,1.1-0.2,0.7-0.8 C106.8,138.7,101.9,132.6,97.1,126.5z M90.6,165.8c-5-4.1-10.1-8.1-15.2-12.2c-0.2,0.3-0.4,0.6-0.5,0.9c5,4,10,8,15,12 C90.4,167,91.1,166.3,90.6,165.8z M78.3,193.3c-5.8-2-11.5-4-17.3-6c-0.1,0.3-0.2,0.7-0.3,1c5.8,2,11.5,4,17.3,6 C78.6,194.5,78.9,193.5,78.3,193.3z M72.5,220.8c-5.4-0.1-10.8-0.3-16.3-0.4c0,0.3,0,0.7,0,1c5.4,0.1,10.9,0.3,16.3,0.4 C73.1,221.9,73.1,220.9,72.5,220.8z M78.8,252.3c-6.1,1.6-12.1,3-18.2,4.4c0.1,0.3,0.2,0.7,0.3,1c6.1-1.3,12.2-2.8,18.3-4.4 C79.8,253.1,79.5,252.1,78.8,252.3z M149.5,95.5c3.2,7.3,6.3,14.6,9.4,21.9c0.3,0.6,1.3,0.3,1-0.3c-3.1-7.3-6.2-14.6-9.4-21.9 C150.2,95.3,149.9,95.4,149.5,95.5z M183.9,89.6c1.2,6.4,2.4,12.9,3.6,19.3c0.1,0.7,1.1,0.4,1-0.3c-1.2-6.4-2.4-12.7-3.5-19.1 C184.6,89.5,184.2,89.6,183.9,89.6z M220.3,93.2c-1,6-1.9,11.9-2.9,17.9c-0.1,0.6,0.9,0.9,1,0.3c1-6,1.9-11.9,2.9-17.9 C221,93.3,220.7,93.2,220.3,93.2z M251.6,105c-2.4,4.7-4.8,9.4-7.1,14c-0.3,0.6,0.6,1.1,0.9,0.5c2.4-4.7,4.8-9.4,7.1-14.1 C252.2,105.3,251.9,105.1,251.6,105z M280.9,126c-4,4.3-8.1,8.5-12.2,12.9c-0.4,0.5,0.3,1.2,0.8,0.7c4-4.3,8.2-8.5,12.2-12.9 C281.4,126.5,281.2,126.2,280.9,126z" fill="#281C22"/></g></g><g><g><g id="change4_1"><path d="M451,132.6l-44.5,253.1c-1.4,8.2-9.3,13.7-17.4,12.2l-184.9-32.5c-8.2-1.4-13.7-9.3-12.2-17.4l44.5-253.1 c1.4-8.2,9.3-13.7,17.4-12.2l184.9,32.5C447,116.6,452.4,124.4,451,132.6z" fill="#E87B69"/></g><g><g id="change5_1"><path d="M368.6,292l28.3,5c2.4,0.4,4,2.7,3.6,5.1L389,366.9c-0.4,2.4-2.7,4-5.1,3.6l-28.3-5 c-2.4-0.4-4-2.7-3.6-5.1l11.4-64.8C363.9,293.2,366.2,291.6,368.6,292z" fill="#D15081"/></g><g id="change3_1"><path d="M244.8,181.7l27.1,4.8c2.7,0.5,4.5,3.1,4.1,5.8l-3.9,22.3c-0.5,2.7-3.1,4.5-5.8,4.1l-27.1-4.8 c-2.7-0.5-4.5-3.1-4.1-5.8l3.9-22.3C239.5,183.1,242.1,181.3,244.8,181.7z M286,193.7l-4.1,23.1c-0.4,2.5,1.2,4.9,3.7,5.3 l27.9,4.9c2.5,0.4,4.9-1.2,5.3-3.7l4.1-23.1c0.4-2.5-1.2-4.9-3.7-5.3l-27.9-4.9C288.8,189.5,286.4,191.2,286,193.7z M332.2,202.9 l-3.7,20.9c-0.5,3.1,1.5,6.1,4.6,6.6l25.7,4.5c3.1,0.5,6.1-1.5,6.6-4.6l3.7-20.9c0.5-3.1-1.5-6.1-4.6-6.6l-25.7-4.5 C335.7,197.7,332.7,199.8,332.2,202.9z M378.3,211.1l-3.7,20.9c-0.5,3.1,1.5,6.1,4.7,6.6l25.7,4.5c3.1,0.5,6.1-1.5,6.6-4.7 l3.7-20.9c0.5-3.1-1.5-6.1-4.7-6.6l-25.7-4.5C381.8,205.9,378.9,207.9,378.3,211.1z M231.2,230.2l-4,22.5c-0.5,2.7,1.3,5.2,4,5.7 l27.4,4.8c2.7,0.5,5.2-1.3,5.7-4l4-22.5c0.5-2.7-1.3-5.2-4-5.7l-27.4-4.8C234.2,225.7,231.7,227.5,231.2,230.2z M278.1,238.7 l-3.9,22c-0.5,2.8,1.4,5.5,4.2,6l26.8,4.7c2.8,0.5,5.5-1.4,6-4.2l3.9-22c0.5-2.8-1.4-5.5-4.2-6l-26.8-4.7 C281.2,234,278.5,235.9,278.1,238.7z M324.6,245.8l-4.2,24.1c-0.4,2.2,1.1,4.4,3.3,4.8l28.9,5.1c2.2,0.4,4.4-1.1,4.8-3.3 l4.2-24.1c0.4-2.2-1.1-4.4-3.3-4.8l-28.9-5.1C327.2,242.1,325,243.6,324.6,245.8z M370.7,254.2l-4.1,23.5 c-0.4,2.4,1.2,4.7,3.6,5.1l28.3,5c2.4,0.4,4.7-1.2,5.1-3.6l4.1-23.5c0.4-2.4-1.2-4.7-3.6-5.1l-28.3-5 C373.4,250.2,371.1,251.8,370.7,254.2z M223.8,272l-3.8,21.5c-0.5,2.9,1.5,5.8,4.4,6.3l26.3,4.6c2.9,0.5,5.8-1.5,6.3-4.4 l3.8-21.5c0.5-2.9-1.5-5.8-4.4-6.3l-26.3-4.6C227.2,267.1,224.3,269.1,223.8,272z M270.9,279.1l-4.2,23.8 c-0.4,2.3,1.1,4.5,3.4,4.9l28.6,5c2.3,0.4,4.5-1.1,4.9-3.4l4.2-23.8c0.4-2.3-1.1-4.5-3.4-4.9l-28.6-5 C273.5,275.3,271.3,276.8,270.9,279.1z M317.3,287.7l-4,23c-0.4,2.5,1.2,4.9,3.8,5.4l27.8,4.9c2.5,0.4,4.9-1.2,5.4-3.8l4-23 c0.4-2.5-1.2-4.9-3.8-5.4l-27.8-4.9C320.1,283.5,317.7,285.2,317.3,287.7z M216.7,312.3l-4.2,23.6c-0.4,2.4,1.2,4.6,3.5,5l28.4,5 c2.4,0.4,4.6-1.2,5-3.5l4.2-23.6c0.4-2.4-1.2-4.6-3.5-5l-28.4-5C219.4,308.3,217.2,309.9,216.7,312.3z M263.7,320.6l-4.1,23.6 c-0.4,2.4,1.2,4.6,3.5,5l28.4,5c2.4,0.4,4.6-1.2,5-3.5l4.1-23.6c0.4-2.4-1.2-4.6-3.5-5l-28.4-5 C266.3,316.6,264.1,318.2,263.7,320.6z M310,328.9l-4.1,23.3c-0.4,2.5,1.2,4.8,3.7,5.2l28.1,4.9c2.5,0.4,4.8-1.2,5.2-3.7 l4.1-23.3c0.4-2.5-1.2-4.8-3.7-5.2l-28.1-4.9C312.8,324.8,310.5,326.4,310,328.9z" fill="#F2DA66"/></g></g><g id="change2_2"><path d="M397.4,389.4c0.6,0.1,0.4,1.1-0.3,1c-14.3-2.4-28.6-4.8-42.8-7.1c-50.4-8.4-100.8-16.8-151.1-25.2 c-0.6-0.1-0.4-1.1,0.3-1c14.3,2.4,28.6,4.8,42.8,7.1C296.6,372.6,347,381,397.4,389.4L397.4,389.4z M387.2,365 c-10.8-2.4-21.6-4.4-32.5-6c-0.6-0.1-0.9,0.9-0.3,1c10.9,1.6,21.8,3.6,32.5,6C387.6,366.1,387.8,365.2,387.2,365L387.2,365z M339.9,357.1c-9.9-1.1-19.6-2.7-29.4-4.6c-0.6-0.1-0.9,0.8-0.3,1c9.8,2,19.7,3.6,29.6,4.7C340.5,358.1,340.5,357.1,339.9,357.1 L339.9,357.1z M293.6,349.3c-10-1.7-20-3.4-30-5.2c-0.6-0.1-0.9,0.9-0.3,1c10,1.7,20,3.4,30,5.2 C293.9,350.3,294.2,349.4,293.6,349.3L293.6,349.3z M247,340.7c-10.4-1.9-20.8-3.7-31.3-5.5c-0.6-0.1-0.9,0.9-0.3,1 c10.4,1.8,20.9,3.6,31.3,5.5C247.4,341.8,247.6,340.9,247,340.7L247,340.7z M254.1,298.3c-9.9-1-19.7-2.4-29.5-4.1 c-0.6-0.1-0.9,0.9-0.3,1c9.9,1.7,19.8,3.1,29.7,4.2C254.7,299.3,254.7,298.3,254.1,298.3L254.1,298.3z M299.3,306.5 c-8.8-0.8-17.6-1.8-26.4-3c-0.6-0.1-0.9,0.9-0.3,1c8.9,1.2,17.7,2.2,26.6,3.1C300,307.6,300,306.6,299.3,306.5L299.3,306.5z M345.7,314.6c-9.6-1.1-19.1-2.1-28.7-3.2c-0.6-0.1-0.6,0.9,0,1c9.6,1.1,19.1,2.1,28.7,3.2C346.3,315.6,346.3,314.6,345.7,314.6 L345.7,314.6z M398.1,282.7c-9-1.4-17.9-2.7-26.9-4.1c-0.6-0.1-0.9,0.9-0.3,1c9,1.4,17.9,2.7,26.9,4.1 C398.5,283.8,398.8,282.8,398.1,282.7L398.1,282.7z M352.6,274.5c-8.6-1.2-17.2-2.7-25.7-4.4c-0.6-0.1-0.9,0.8-0.3,1 c8.5,1.7,17.1,3.2,25.7,4.4C353,275.5,353.2,274.6,352.6,274.5L352.6,274.5z M305.8,265.9c-8.9-1.9-17.9-3.2-27-4.2 c-0.6-0.1-0.6,0.9,0,1c9,0.9,17.9,2.3,26.7,4.1C306.1,267,306.4,266,305.8,265.9L305.8,265.9z M260.3,258.8 c-4.5-1.2-9-2.2-13.6-2.8c-4.2-0.6-8.8-0.4-12.9-1.7c-0.6-0.2-0.9,0.8-0.3,1c4.1,1.3,8.7,1.1,12.9,1.7c4.6,0.7,9.1,1.6,13.6,2.8 C260.7,260,261,259,260.3,258.8L260.3,258.8z M268.5,213.1c-9-0.7-17.9-1.9-26.8-3.4c-0.6-0.1-0.9,0.9-0.3,1 c9,1.5,18,2.7,27.1,3.4C269.1,214.1,269.1,213.1,268.5,213.1L268.5,213.1z M314.9,221.2c-8.8-0.9-17.5-1.8-26.3-2.7 c-0.6-0.1-0.6,0.9,0,1c8.8,0.9,17.5,1.8,26.3,2.7C315.5,222.3,315.5,221.3,314.9,221.2L314.9,221.2z M361.5,228.8 c-9-1.4-18-2.5-27.1-3.4c-0.6-0.1-0.6,0.9,0,1c9,0.9,17.9,2,26.8,3.4C361.8,229.9,362.1,228.9,361.5,228.8L361.5,228.8z M407.1,236.3c-8.1-1.4-16.2-2.6-24.4-3.5c-0.6-0.1-0.6,0.9,0,1c8.1,0.9,16.1,2,24.1,3.4C407.5,237.3,407.8,236.4,407.1,236.3 L407.1,236.3z" fill="#281C22"/></g><g id="change2_3"><path d="M451,132.6l-12.4,70.6L224,165.4l12.4-70.6c1.4-8.2,9.3-13.7,17.4-12.2l184.9,32.5 C447,116.6,452.4,124.4,451,132.6z" fill="#281C22"/></g><g id="change1_2"><path d="M419.1,180.1l-168.9-29.7c-2.1-0.4-3.5-2.4-3.1-4.4l6.2-35.4c0.4-2.1,2.4-3.5,4.4-3.1l168.9,29.7 c2.1,0.4,3.5,2.4,3.1,4.4l-6.2,35.4C423.2,179.1,421.2,180.5,419.1,180.1z" fill="#A7DDEA"/></g></g><g><g id="change1_3"><path d="M119.7,426.1c3.8,5.7,2.3,13.4-3.3,17.2c-5.7,3.8-13.4,2.3-17.2-3.3c-3.8-5.7-2.3-13.4,3.3-17.2 C108.2,418.9,115.9,420.4,119.7,426.1z M114.5,452.4l-6.1,2.2c-0.1,0-0.2,0.2-0.1,0.3l14.9,24c0.1,0.2,0.5,0.1,0.4-0.2l-8.8-26.2 C114.7,452.4,114.6,452.4,114.5,452.4z" fill="#A7DDEA"/></g><g id="change2_4"><path d="M51.4,358.3l84.1-56.7c1.2-0.8,2.5-0.8,3.1,0l0,0c0.5,0.8,0,2.1-1.1,2.8l-84.1,56.7 c-1.2,0.8-2.5,0.8-3.1,0l0,0C49.7,360.4,50.2,359.1,51.4,358.3z M197,394.4c6.4,5.6,12.9,11.2,19.3,16.8c2.4,2.1,6-1.4,3.5-3.5 c-6.4-5.6-12.9-11.2-19.3-16.8C198.2,388.8,194.6,392.3,197,394.4L197,394.4z" fill="#281C22"/></g><g id="change5_2"><path d="M61,259.7l141.6,122.5c2.6,2.2,3.3,5.9,1.8,8.9l-2.9,5.9c-0.9,1.7-3.1,2.2-4.6,0.9L56.4,275.1L61,259.7z M39.6,274.4l60.5,177.2c1.1,3.2,4.2,5.2,7.6,5l6.5-0.5c1.9-0.2,3.2-2.1,2.5-3.9L55.7,276L39.6,274.4z" fill="#D15081"/></g><g id="change2_5"><path d="M63.2,287.1c-14.9,10.4-42-25.6-51.5-39.2c-1.9-2.7-1.1-6.5,1.8-8.6l6.6-4.6L1,208.6 c-1.4-1.9-1.3-4.6,0.2-6.4c1.8-2.1,4.5-4.6,8.1-5.8c2.3-0.8,4.9,0.2,6.1,2.3l16.5,27.8l7-4.9c3-2.1,7.1-1.4,8.9,1.6 C56.5,237.7,77.9,276.8,63.2,287.1z" fill="#281C22"/></g><g id="change1_4"><path d="M193.1,376.6c3.8,5.7,2.3,13.4-3.3,17.2c-5.7,3.8-13.4,2.3-17.2-3.3s-2.3-13.4,3.3-17.2 S189.3,371,193.1,376.6z" fill="#A7DDEA"/></g><g id="change1_5"><path d="M49.3,249.2c2.7,3.9,1.6,9.3-2.3,11.9s-9.3,1.6-11.9-2.3c-2.7-3.9-1.6-9.3,2.3-11.9 C41.3,244.3,46.6,245.3,49.3,249.2z M31.2,226.6c-0.6,0.4-1.2,0.8-1.8,1.2c0-0.1,0-0.1-0.1-0.2c-5-8.5-10.2-16.9-15.5-25.2 c-0.3-0.5-1.2,0-0.9,0.5c5.4,8.3,10.6,16.7,15.5,25.2c0,0.1,0.1,0.1,0.2,0.2c-0.8,0.5-1.6,1-2.4,1.5c-5.7-8.4-11.5-16.8-17.5-25 c-0.4-0.5-1.2,0-0.9,0.5c6,8.3,11.8,16.6,17.5,25.1c0,0,0,0,0,0c-0.7,0.5-1.4,1-2.2,1.5c-5.9-7.9-11.8-15.9-17.6-23.8 c-0.4-0.5-1.2,0-0.9,0.5c5.9,8,11.8,15.9,17.7,23.9c-0.5,0.4-1.1,0.8-1.7,1.2c-0.5,0.4,0,1.2,0.5,0.9c3.4-2.5,6.8-4.8,10.4-7 C32.3,227.1,31.8,226.3,31.2,226.6z" fill="#A7DDEA"/></g><g id="change2_6"><path d="M38.5,244.2c-0.1-0.6,0.9-0.6,1,0c1,7.7,2.2,15.3,3.6,22.9c0.1,0.6-0.8,0.9-1,0.3 C40.7,259.7,39.5,251.9,38.5,244.2L38.5,244.2z M42,245.1c1,6.8,2,13.6,3.1,20.5c0.1,0.6,1.1,0.4,1-0.3c-1-6.8-2-13.6-3.1-20.5 C42.9,244.2,41.9,244.5,42,245.1L42,245.1z" fill="#281C22"/></g><g id="change1_6"><path d="M83.3,310.9l25.7,40.8l-4.7,3.2l-27.8-39.4L83.3,310.9z" fill="#A7DDEA"/></g><g id="change2_7"><path d="M182.2,379.7c0.6-0.2,0.9,0.8,0.3,1c-2.9,0.8-2.4,5.3,0.6,5.5c3.8,0.3,3.2-6.4-0.6-5.5 C181.8,380.8,181.5,379.8,182.2,379.7c2-0.5,4.2,1.1,4.5,3.1c0.3,1.9-0.9,4-2.8,4.3c-2,0.4-3.9-1.4-4.3-3.2 C179.1,382,180.3,380.2,182.2,379.7L182.2,379.7z M172.1,376.4c-3.7,4.7-1.7,13.2,2.4,17c4.5,4.1,12.1,4,16.6-0.1 c0.5-0.4-0.2-1.1-0.7-0.7c-4.1,3.7-11.2,3.8-15.2,0.1c-3.7-3.3-5.8-11.3-2.4-15.6C173.2,376.6,172.5,375.9,172.1,376.4 L172.1,376.4z" fill="#281C22"/></g></g></g></svg>